<svg xmlns="http://www.w3.org/2000/svg" width="126" height="46" fill="none"><path fill="#58595B" d="M93.002 11.356h-.087V34.71h.087V11.356Z"/><mask id="a" width="17" height="21" x="98" y="11" maskUnits="userSpaceOnUse" style="mask-type:luminance"><path fill="#fff" d="M100.991 13.069c-1.474 1.379-2.222 3.136-2.222 5.227 0 1.735.506 3.358 1.496 4.849.858 1.267 2.353 2.891 4.619 4.96l3.519 3.336a1.54 1.54 0 0 0 2.068-.2c.55-.623.506-1.58-.088-2.158-1.826-1.668-1.54-1.423-3.365-3.091-1.892-1.713-3.212-3.159-3.938-4.316-.682-1.067-1.034-2.18-1.034-3.291 0-1.29.44-2.314 1.32-3.137.924-.845 1.98-1.245 3.278-1.245 1.275 0 2.441.333 3.431 1 .616.446 1.254 1.046 1.914 1.825h-.022c.176.244.484.711.616 1.4.154.89-.11 1.602-.242 1.87.506 0 1.209-.245 1.781-.868.572-.645 1.298-3.025-.264-4.894-.396-.467-.791-1.023-2.023-1.846-1.474-.978-3.3-1.49-5.367-1.49-2.156 0-4.004.712-5.477 2.069Z"/></mask><g mask="url(#a)"><path fill="url(#b)" d="M115.442 11H98.769v20.908h16.673V11Z"/></g><mask id="c" width="17" height="10" x="98" y="11" maskUnits="userSpaceOnUse" style="mask-type:luminance"><path fill="#fff" d="M100.991 13.069c-1.474 1.379-2.222 3.136-2.222 5.227 0 .756.088 1.49.286 2.202.066-.779.286-2.113 1.188-3.426 2.111-3.047 5.983-3.07 6.401-3.07 1.275 0 2.441.334 3.431 1.002.616.445 1.254 1.045 1.914 1.824h-.022c.176.244.484.711.616 1.4.154.89-.11 1.602-.242 1.87.506 0 1.209-.245 1.781-.868.572-.645 1.298-3.025-.264-4.894-.396-.467-.791-1.023-2.023-1.846-1.474-.978-3.3-1.49-5.367-1.49-2.156 0-4.004.712-5.477 2.069Z"/></mask><g mask="url(#c)"><path fill="url(#d)" d="M115.442 11H98.769v9.498h16.673V11Z"/></g><mask id="e" width="17" height="24" x="109" y="11" maskUnits="userSpaceOnUse" style="mask-type:luminance"><path fill="#fff" d="M118.257 11c-2.09 0-3.893.49-5.367 1.49-.418.29-.748.534-1.012.779-.088.066-.176.155-.242.222-.33.312-.55.6-.748.845-1.561 1.847-.857 4.249-.264 4.894.572.623 1.276.867 1.782.867-.11-.267-.396-.978-.242-1.868.11-.69.44-1.157.616-1.401.638-.779 1.276-1.402 1.914-1.824.99-.668 2.155-1.001 3.431-1.001 1.276 0 2.354.4 3.278 1.245.901.823 1.319 1.847 1.319 3.137 0 1.09-.352 2.202-1.033 3.292-.726 1.134-2.046 2.58-3.938 4.315l-6.335 6.383-.022.023A1.53 1.53 0 0 0 112.472 35c.396 0 .77-.156 1.034-.423l.022-.022.022-.022 6.335-6.406c2.265-2.069 3.761-3.692 4.619-4.96.99-1.49 1.496-3.136 1.496-4.85 0-2.09-.748-3.847-2.222-5.226-1.496-1.38-3.343-2.091-5.521-2.091Z"/></mask><g mask="url(#e)"><path fill="url(#f)" d="m101.694 13.825 9.569 26.58 22.326-8.23-9.569-26.58-22.326 8.23Z"/></g><path fill="#EC1C24" d="M11.57 11.356c-2.925 0-5.455 1-7.589 2.914-.176.155-.352.31-.528.489C1.166 17.005 0 19.786 0 23.01c0 3.203 1.188 5.961 3.41 8.23 1.54 1.557 3.299 2.602 5.3 3.114.902.222 1.848.333 2.838.333s1.958-.11 2.86-.333c.264-.067.505-.134.747-.223.088-.044.198-.066.286-.11h.022c1.364-.49 2.596-1.246 3.74-2.292l3.563 2.603.33.244V11.333l-3.893 2.959c-2.156-1.935-4.707-2.936-7.633-2.936Zm4.905 16.637c-1.056 1.068-2.288 1.713-3.673 1.935a7.244 7.244 0 0 1-1.232.112c-1.936 0-3.563-.645-4.927-2.024-1.364-1.38-2.002-3.048-2.002-4.983 0-1.78.528-3.314 1.672-4.626.11-.134.198-.245.33-.378 1.364-1.38 2.991-2.025 4.927-2.025 1.914 0 3.541.668 4.905 2.047 1.364 1.379 2.024 3.025 2.024 4.96 0 1.957-.66 3.603-2.024 4.982ZM53.671 34.132c1.122.378 2.31.579 3.563.579 1.232 0 2.442-.2 3.586-.579a10.852 10.852 0 0 0 2.42-1.134 11.607 11.607 0 0 0 4.179-4.47l.44-.824-4.026-2.29-.462.889c-.593 1.134-1.43 2.068-2.53 2.736-1.099.667-2.287 1-3.584 1-1.122 0-2.178-.222-3.146-.756l9.942-8.875 3.366-3.002-.418-.69c-1.012-1.624-2.442-2.891-4.092-3.848-1.21-.69-2.507-1.179-3.87-1.357a9.243 9.243 0 0 0-1.76-.155c-.309 0-.594.022-.902.022-2.772.2-5.192 1.335-7.215 3.359-2.266 2.268-3.431 5.049-3.431 8.274 0 1.868.417 3.581 1.187 5.138.55 1.112 1.32 2.135 2.222 3.07 1.32 1.378 2.837 2.357 4.531 2.913Zm-3.277-12.211c.198-1.49.814-2.78 1.913-3.892.198-.178.374-.379.572-.534h.022c1.232-1.024 2.684-1.49 4.333-1.49 1.32 0 2.53.333 3.63 1.023l-9.92 8.919a7.026 7.026 0 0 1-.616-2.936c0-.378.022-.734.066-1.09ZM38.955 34.644h4.62V20.942c0-2.49-.837-4.67-2.596-6.428-1.738-1.757-3.893-2.602-6.38-2.602-2.177 0-4.112.69-5.74 2.113L25.647 11.4v23.288h4.62V20.942c0-1.223.418-2.246 1.253-3.091.858-.868 1.87-1.268 3.058-1.268 1.21 0 2.221.4 3.08 1.245.88.868 1.253 1.913 1.253 3.137v13.679h.044Z"/><path fill="#EC1C24" d="M87.149 34.688 79.67 21.365l5.61-10.01h-5.456l-2.903 5.161-2.904-5.16H68.54l5.675 10.009-7.545 13.323h5.477l4.774-8.474 4.75 8.474h5.478Z"/><defs><linearGradient id="b" x1="98.751" x2="114.792" y1="21.469" y2="21.469" gradientUnits="userSpaceOnUse"><stop stop-color="#871719"/><stop offset=".45" stop-color="#DA1F26"/><stop offset="1" stop-color="#F0564B"/></linearGradient><linearGradient id="d" x1="98.751" x2="114.792" y1="15.775" y2="15.775" gradientUnits="userSpaceOnUse"><stop stop-color="#F0564B"/><stop offset=".55" stop-color="#DA1F26"/><stop offset="1" stop-color="#871719"/></linearGradient><linearGradient id="f" x1="113.651" x2="121.019" y1="11.965" y2="31.985" gradientUnits="userSpaceOnUse"><stop stop-color="#EC1C24"/><stop offset=".128" stop-color="#EC1C24"/><stop offset=".204" stop-color="#CB2037"/><stop offset=".567" stop-color="#2E3191"/><stop offset="1" stop-color="#2E3191"/></linearGradient></defs></svg>