<svg xmlns:xlink="http://www.w3.org/1999/xlink" xmlns="http://www.w3.org/2000/svg" class="icon logo-itaka-desktop" width="312.5" height="312.5"><defs><symbol id="logo-itaka-desktop" viewBox="0 0 312.5 312.5"><title>Biuro Podróży ITAKA</title><g transform="matrix(1.25,0,0,-1.25,0,312.5)" id="g10"><g id="g12"><g id="g14"><g transform="translate(209.5537,103.96)" id="g20"><path id="path22" style="fill:#ec1c24;fill-opacity:1;fill-rule:evenodd;stroke:none" d="m 0,0 c -26.669,13.964 -55.9,11.773 -82.375,-2.297 18.692,-4.943 34.883,-7.095 48.257,-6.49 C -21.707,-8.236 -9.009,-4.323 0,0 m -77.877,143.702 c 55.841,0 101.123,-43.334 101.123,-96.775 0,-4.12 -0.272,-8.18 -0.795,-12.171 C 17.885,34.69 12.453,32.448 6.796,28.528 5.241,27.449 13.118,10.702 12.219,8.854 11.148,6.67 7.397,3.795 2.002,0.998 -11.913,20.813 -25.695,53.364 -8.374,83.173 c -48.387,10.753 -106.776,4.265 -155.508,-21.54 -1.348,-14.568 1.258,-26.03 6.4,-35.224 l -0.381,0.18 c -3.063,0.07 -6.124,0.139 -9.183,0.205 0.065,-7.045 -1.038,-13.721 -2.922,-19.879 -5.797,12.198 -9.031,25.746 -9.031,40.012 0,53.441 45.284,96.775 101.122,96.775"/></g><g transform="translate(120.7344,210.252)" id="g24"><path id="path26" style="fill:#231f20;fill-opacity:1;fill-rule:evenodd;stroke:none" d="m 0,0 8.216,0 0,-13.038 L 0,-14.25 0,0 Z m -112.395,-138.087 0,0.622 0.589,0.228 0.25,0.094 c 1.587,0.612 3.377,1.603 5.28,2.923 1.928,1.343 3.953,3.017 5.984,4.991 10.478,10.134 21.362,28.201 21.156,49.726 l -0.01,0.935 0.936,-0.022 9.183,-0.205 0.203,-0.005 0.171,-0.08 0.37,-0.176 0.259,-0.123 0.144,-0.259 c 5.975,-10.684 15.468,-18.261 26.176,-24.057 10.636,-5.754 22.493,-9.762 33.312,-13.319 0.55,0.4 1.107,0.799 1.658,1.186 0.686,0.479 1.367,0.949 2.043,1.399 3.524,2.373 7.099,4.517 10.707,6.435 l 0.311,0.164 0.344,-0.089 0.195,-0.051 0.001,0 c 2.601,-0.686 5.155,-1.312 7.657,-1.895 2.479,-0.565 4.939,-1.093 7.363,-1.564 12.297,-2.396 23.264,-3.37 32.773,-2.947 l 0.136,0.009 c 1.705,0.079 3.429,0.229 5.154,0.424 1.736,0.205 3.446,0.465 5.123,0.77 8.694,1.571 16.964,4.424 23.353,7.494 l 0.408,0.196 0.4,-0.209 c 0.335,-0.174 0.661,-0.351 0.979,-0.521 l -0.133,0.195 -0.591,0.839 0.91,0.485 0.031,0.015 0.007,0.004 c 0.715,0.373 1.425,0.764 2.126,1.163 0.7,0.401 1.339,0.786 1.917,1.149 l 0,0.002 c 3.001,1.902 5.034,3.694 5.732,5.102 l -0.004,0 0.004,0.005 c 0.257,0.568 -1.218,4.595 -2.722,8.707 -1.871,5.119 -3.789,10.361 -2.388,11.328 4.502,3.121 8.881,5.203 12.834,6.01 3.465,0.709 6.612,0.446 9.248,-0.939 2.636,-1.387 4.727,-3.881 6.058,-7.625 1.352,-3.796 1.927,-8.911 1.502,-15.498 l -0.009,-0.094 0,-0.007 c -0.089,-1.345 -0.357,-2.813 -0.768,-4.373 -0.406,-1.533 -0.96,-3.16 -1.637,-4.839 -3.433,-8.542 -10.111,-18.616 -17.237,-25.992 l -0.004,-0.009 -0.418,-0.426 -0.008,0 c -1.705,-1.728 -3.528,-3.315 -5.418,-4.759 -1.885,-1.448 -3.843,-2.759 -5.83,-3.946 -10.094,-6.011 -20.101,-8.62 -26.394,-8.745 l -179.416,0 0,10.174 z"/></g><g transform="translate(45.6714,165.5928)" id="g28"><path id="path30" style="fill:#ffffff;fill-opacity:1;fill-rule:evenodd;stroke:none" d="m 0,0 c 48.732,25.805 107.122,32.293 155.508,21.54 -18.422,-31.701 -1.665,-66.508 13.026,-85.792 -32.869,19.794 -70.221,14.066 -101.707,-8.91 C 35.583,-62.911 -4.528,-48.988 0,0"/></g><g transform="translate(51.5088,40.9707)" id="g32"><path id="path34" style="fill:#ec1c24;fill-opacity:1;fill-rule:evenodd;stroke:none" d="m 0,0 0,-35.036 -11.994,0 0,35.036 -14.837,0 0,11.056 41.669,0 L 14.838,0 0,0 Z M 63.134,-30.935 34.722,14.521 6.63,-30.935 l 10.101,-5.995 4.42,6.947 27.463,0 4.42,-6.947 10.1,5.995 z m -21.148,11.371 -14.207,0 6.943,11.674 7.264,-11.674 z m 124.058,-11.371 -28.095,45.456 -27.573,-44.112 -19.149,18.23 18.312,17.678 -8.212,8.204 -21.462,-20.83 0,17.365 -11.994,0 0,-46.092 11.994,0 0,18.307 22.727,-21.781 7.517,7.238 9.531,-5.658 4.42,6.947 27.463,0 4.42,-6.947 10.101,5.995 z m -20.836,11.371 -14.52,0 7.261,11.674 7.259,-11.674 z m -189.717,-15.472 11.681,0 0,46.092 -11.681,0 0,-46.092 z"/></g></g></g></g></symbol></defs><use xlink:href="#logo-itaka-desktop" fill="#10447D"/></svg>