<svg xmlns="http://www.w3.org/2000/svg" width="143" height="40" viewBox="0 0 143 40"><g fill="none" fill-rule="evenodd"><path fill="#2C2927" fill-rule="nonzero" d="M140.124983,39.4699 L133.692284,39.4699 C133.692284,39.4699 133.937883,37.2931 134.024094,34.8599 C135.832507,34.636 137.764222,34.3756 139.781144,34.0809 C139.867355,36.8268 140.124983,39.4699 140.124983,39.4699 Z M143,0 C143,0 142.122859,3.82257 140.906892,14.7014 C140.586109,17.9716 139.922489,26.9046 139.780142,31.1058 C137.996789,31.5896 136.083119,31.9472 134.040133,32.1791 C133.949913,27.4177 133.396562,12.9169 132.123455,1.31907 C135.428521,0.899734 139.05437,0.460017 143,0 Z"/><g fill-rule="nonzero" transform="translate(105.178 3.325)"><path fill="#E62613" d="M1.10770342 24.4735906C4.12707237 22.9672906 6.96098871 21.2515906 9.61145733 19.3262906 9.65656743 23.1257906 9.72673868 27.0635906 9.82798578 28.4459906 10.0445142 31.4006906 10.4785736 34.1265906 11.0559828 36.1443906L0 36.1443906C.60948749 32.4396906.972373134 29.8878906 1.10770342 24.4735906ZM18.4861165 11.3451906C20.5260952 9.08639062 22.4076873 6.64737062 24.1308929 4.02832062 24.9849773 4.98871062 25.5794281 6.07414062 25.8480838 7.23149062 26.6520459 10.7626906 26.133781 13.6004906 25.0511388 15.7624906 23.1665393 19.8633906 18.8459948 21.9600906 12.4253247 21.9600906L12.3330997 21.9600906C11.8268642 21.9598906 11.801803 21.9570906 11.3406776 21.9041906 11.29657 21.8992906 11.2504574 21.8938906 11.1983302 21.8879906 14.5896068 21.8879906 19.423404 19.7980906 19.6399324 14.7534906 19.6990768 13.6586906 19.4183917 12.3330906 18.4861165 11.3451906Z"/><path fill="#FF6500" d="M24.1308929,4.02843062 C21.738053,1.33792062 17.3002222,-0.371149381 12.223833,0.0688806185 L12.0594318,0.0840806185 C11.20234,0.222340619 10.396373,0.357350619 9.64153073,0.489110619 L3.88949254,1.62276062 C2.98328087,1.80952062 2.07706921,1.99352062 1.1698551,2.17470062 L1.1698551,18.6452906 C1.1698551,20.9259906 1.14980617,22.8314906 1.10770342,24.4735906 C4.12707237,22.9672906 6.96098871,21.2515906 9.61145733,19.3262906 C9.55933011,15.0047906 9.53928118,10.8621906 9.53928118,10.8621906 C16.976432,8.36449062 19.2860688,11.2735906 19.6068517,13.8235906 C19.4985875,12.9647906 19.1657752,12.0652906 18.4861165,11.3451906 C20.5260952,9.08639062 22.4076873,6.64745062 24.1308929,4.02843062 Z"/></g><g transform="translate(76.693 6.22)"><path fill="#FF6500" d="M25.9744923,2.08105 L25.9744923,20.71176 C25.9744923,23.41666 24.14202,33.76206 12.9643402,33.76206 C2.11375875,33.76206 0.113476947,24.01396 0.00561370057,20.96866 C0.00561370057,20.97266 0.00591443453,20.97656 0.00601467918,20.98056 C3.26747447,19.26626 6.07953747,17.71016 8.44230394,16.31226 L8.44230394,20.71176 C8.44230394,20.71176 8.46576119,26.06686 12.9877975,26.06686 C17.5097335,26.06686 17.3889387,20.71176 17.3889387,20.71176 L17.3889387,10.03216 C19.79872,7.98776 22.6607048,5.33746 25.9744923,2.08105 Z"/><path fill="#FFC800" fill-rule="nonzero" d="M25.9744923 2.08127 25.9744923 0C23.091857.55216 20.2207499 1.07502 17.3885378 1.56685L17.388638 10.03236C19.7985195 7.98796 22.6604041 5.33766 25.9744923 2.08127ZM.00571394522 20.98076C3.26717373 19.26646 6.07923674 17.71036 8.44200321 16.31246L8.44180272 3.04061C5.53831659 3.49297 2.71322178 3.90776 0 4.28296L.000501223265 20.71196C.000501223265 20.79456.00220538237 20.88436.00571394522 20.98076Z"/><path fill="#E62613" fill-rule="nonzero" d="M25.6196262,23.45636 C24.6953705,27.51066 21.6533463,33.76206 12.9641398,33.76206 C9.56123476,33.76206 7.02875409,32.80326 5.15217419,31.39316 C11.7815536,29.31246 18.6039039,26.66686 25.6196262,23.45636 Z"/></g><path fill="#2C2927" fill-rule="nonzero" d="M67.8190163 39.482 67.8190163 29.2183C67.8190163 28.3535 67.7468402 27.5608 67.674664 26.7681 67.6024879 25.9754 67.4582358 25.3268 67.2418076 24.9665 67.0252792 24.5341 66.6645989 24.1737 66.1595664 23.9575 65.7266097 23.7413 65.0773251 23.6693 64.211512 23.6693 63.6343033 23.6693 63.0570946 23.7413 62.4077097 23.9575 61.830501 24.1737 61.1812164 24.462 60.4596554 24.8944L60.4596554 39.4725 53.6291852 39.4694 53.6291852 18.8409 60.4596554 18.8409 60.4596554 21.147C61.6140728 20.2101 62.6963141 19.5615 63.7785554 19.0571 64.8607966 18.5526 66.0152141 18.3364 67.3138835 18.3364 69.4784663 18.3364 71.2099922 18.985 72.4365858 20.2822 73.6630791 21.5794 74.5996649 23.5252 74.5996649 26.1195L74.5996649 39.482 67.8190163 39.482ZM44.2158113 18.8511 51.0444771 18.8511 51.0444771 39.4701 44.2158113 39.4701 44.2158113 18.8511ZM44.2164128 12.7123C46.2582961 12.8887 48.2589789 12.9769 50.2184611 12.9769 50.4805007 12.9769 50.7557725 12.9744 51.0437754 12.9694L51.0445773 16.5349 44.2163125 16.5349 44.2164128 12.7123ZM31.8609586 18.4202C37.5318988 18.4202 42.1290184 23.2469 42.1290184 29.201 42.1290184 35.155 37.5318988 39.9817 31.8609586 39.9817 26.1901185 39.9817 21.5928988 35.155 21.5928988 29.201 21.5928988 23.2469 26.1901185 18.4202 31.8609586 18.4202ZM31.8609586 23.9514C29.6209918 23.9514 27.8050599 26.3132 27.8050599 29.2266 27.8050599 32.14 29.6209918 34.5017 31.8609586 34.5017 34.1010256 34.5017 35.9168572 32.14 35.9168572 29.2266 35.9168572 26.3132 34.1010256 23.9514 31.8609586 23.9514ZM9.95676006 3.46484C13.404314 4.9505 16.7704292 6.26213 20.055246 7.39973 20.0551458 10.2135 20.0618622 11.8282 20.0674759 13.4379L20.0680773 13.6048C20.0716861 14.6627 20.0747937 15.7361 20.0750945 17.1634L20.0750945 17.3917C20.0635663 27.0258 20.0498328 32.8665 18.1251355 36.2647 17.0013929 38.249 14.9487834 39.9817 10.8383516 39.9997685 6.72800008 40.0175 1.92177019 36.5631 0 33.3147 1.92177019 35.0128 5.75070494 35.8124 8.55944985 34.9265 10.105864 34.4075 11.2114622 33.1734 11.7355413 31.477 12.7092176 28.3257 12.0642435 23.6076 11.6798053 20.1521 11.2497557 16.2864 10.6008721 9.89106 10.2295659 6.19392L10.1974876 5.87484C10.077595 4.67955 9.99112393 3.81053 9.95729136 3.47006L9.95676006 3.46484Z"/></g></svg>